name D:\school\WTK\thesis\model\3dpredictsim\Results\batch_windlass\Pog_s1_tmt_aCst_d00_k800_WL30_ig24_act_TTC.mot
datacolumns 128
datarows 4
range 1.23026360 1.26717151
endheader
time	pelvis_tilt	pelvis_list	pelvis_rotation	pelvis_tx	pelvis_ty	pelvis_tz	hip_flexion_l	hip_adduction_l	hip_rotation_l	hip_flexion_r	hip_adduction_r	hip_rotation_r	knee_angle_l	knee_angle_r	ankle_angle_l	ankle_angle_r	subtalar_angle_l	subtalar_angle_r	tmt_angle_l	tmt_angle_r	mtp_angle_l	mtp_angle_r	lumbar_extension	lumbar_bending	lumbar_rotation	arm_flex_l	arm_add_l	arm_rot_l	arm_flex_r	arm_add_r	arm_rot_r	elbow_flex_l	elbow_flex_r	pro_sup_l	pro_sup_r	glut_med1_l/activation	glut_med2_l/activation	glut_med3_l/activation	glut_min1_l/activation	glut_min2_l/activation	glut_min3_l/activation	semimem_l/activation	semiten_l/activation	bifemlh_l/activation	bifemsh_l/activation	sar_l/activation	add_long_l/activation	add_brev_l/activation	add_mag1_l/activation	add_mag2_l/activation	add_mag3_l/activation	tfl_l/activation	pect_l/activation	grac_l/activation	glut_max1_l/activation	glut_max2_l/activation	glut_max3_l/activation	iliacus_l/activation	psoas_l/activation	quad_fem_l/activation	gem_l/activation	peri_l/activation	rect_fem_l/activation	vas_med_l/activation	vas_int_l/activation	vas_lat_l/activation	med_gas_l/activation	lat_gas_l/activation	soleus_l/activation	tib_post_l/activation	flex_dig_l/activation	flex_hal_l/activation	tib_ant_l/activation	per_brev_l/activation	per_long_l/activation	per_tert_l/activation	ext_dig_l/activation	ext_hal_l/activation	ercspn_l/activation	intobl_l/activation	extobl_l/activation	glut_med1_r/activation	glut_med2_r/activation	glut_med3_r/activation	glut_min1_r/activation	glut_min2_r/activation	glut_min3_r/activation	semimem_r/activation	semiten_r/activation	bifemlh_r/activation	bifemsh_r/activation	sar_r/activation	add_long_r/activation	add_brev_r/activation	add_mag1_r/activation	add_mag2_r/activation	add_mag3_r/activation	tfl_r/activation	pect_r/activation	grac_r/activation	glut_max1_r/activation	glut_max2_r/activation	glut_max3_r/activation	iliacus_r/activation	psoas_r/activation	quad_fem_r/activation	gem_r/activation	peri_r/activation	rect_fem_r/activation	vas_med_r/activation	vas_int_r/activation	vas_lat_r/activation	med_gas_r/activation	lat_gas_r/activation	soleus_r/activation	tib_post_r/activation	flex_dig_r/activation	flex_hal_r/activation	tib_ant_r/activation	per_brev_r/activation	per_long_r/activation	per_tert_r/activation	ext_dig_r/activation	ext_hal_r/activation	ercspn_r/activation	intobl_r/activation	extobl_r/activation	
          1.23026360	         -2.92884003	         -0.28983847	          9.31455923	          1.53782950	          0.85506861	         -0.00304437	        -17.52693387	         -2.56396606	          8.01019207	         33.30502629	         -1.80713018	         -3.97963070	        -14.77503442	        -18.89101897	         -9.11666301	          2.45549600	         18.07512163	          9.45757747	        -11.36258479	         -0.75923341	         36.32213518	          2.17401128	          0.89678409	         -2.44447595	         -3.13106870	          2.65529737	        -13.53568737	         16.12809201	        -14.39467222	        -13.59598574	         12.85338668	         42.47814165	         18.14724356	         86.51662706	         86.51662706	          0.14805974	          0.06857329	          0.05000084	          0.18323704	          0.12005756	          0.08713528	          0.05001246	          0.05000130	          0.05000113	          0.05000073	          0.08710571	          0.14958017	          0.10273847	          0.05001153	          0.05051660	          0.05001477	          0.15673923	          0.05142295	          0.05000613	          0.05002961	          0.05003993	          0.05002324	          0.30064676	          0.47112626	          0.05000420	          0.05000375	          0.05000060	          0.15424869	          0.08782773	          0.11452455	          0.09221712	          0.14336651	          0.19290645	          0.05000007	          0.13365123	          0.13678007	          0.14924170	          0.24989818	          0.46867352	          0.34639636	          0.62475983	          0.45529218	          0.24427211	          0.05000004	          0.05363205	          0.07861384	          0.05213226	          0.05000103	          0.07241084	          0.05000376	          0.05000308	          0.05000406	          0.09022427	          0.06295617	          0.11176764	          0.06025370	          0.05000334	          0.10542640	          0.09999363	          0.15455041	          0.13079460	          0.09536050	          0.05000549	          0.06025331	          0.08697786	          0.05000134	          0.05000108	          0.10653145	          0.06797160	          0.08721468	          0.20498409	          0.05969980	          0.10588805	          0.05000050	          0.11089184	          0.11467660	          0.10350499	          0.06025233	          0.06025237	          0.06025221	          0.06025212	          0.06025311	          0.06025265	          0.53962800	          0.24650128	          0.15547754	          0.05000212	          0.54973841	          0.05000048	          0.05000019	          0.12784170	          0.11347170	
          1.24256624	         -2.91989008	         -0.23125643	          9.41703288	          1.55792097	          0.85365233	         -0.00268715	        -17.50471619	         -2.73543614	          7.78423105	         32.71428067	         -1.52984030	         -3.80805575	        -16.39801436	        -19.24745790	        -11.84025086	          2.02199385	         18.37330562	          9.07826397	        -11.57382712	         -0.85831283	         36.33485902	          2.49006464	          1.13542599	         -2.21809939	         -3.21997983	          2.21370624	        -13.60795348	         16.44176130	        -15.87398896	        -13.58995167	         13.01902624	         43.56975648	         18.11112899	         86.51662706	         86.51662706	          0.12286691	          0.05690577	          0.07260608	          0.15205891	          0.09962946	          0.07259999	          0.05774380	          0.05001752	          0.05745097	          0.05001089	          0.07228528	          0.19949677	          0.23653617	          0.26188245	          0.07575919	          0.08213496	          0.13006949	          0.06933812	          0.06026046	          0.05000565	          0.05000363	          0.05000630	          0.24949038	          0.39096214	          0.05222357	          0.07260489	          0.06174115	          0.12800257	          0.07288427	          0.10543209	          0.10543301	          0.11897203	          0.16008253	          0.05000007	          0.11090987	          0.11350649	          0.12384763	          0.40166752	          0.42091312	          0.31613088	          0.75039451	          0.56155283	          0.20270838	          0.05400981	          0.07260636	          0.07260687	          0.05000019	          0.05002095	          0.14182594	          0.05000044	          0.05000054	          0.05000548	          0.07487224	          0.05224426	          0.09274991	          0.05000171	          0.05000281	          0.08748789	          0.08297947	          0.26135193	          0.20279794	          0.10418197	          0.05000692	          0.05000347	          0.07217900	          0.06025231	          0.06025283	          0.12649009	          0.05640604	          0.07260099	          0.39263090	          0.07189474	          0.10012658	          0.07260663	          0.23524386	          0.22655476	          0.20332340	          0.05000012	          0.05000017	          0.05000002	          0.05000003	          0.05000150	          0.05000061	          0.68312165	          0.22232776	          0.13138579	          0.47807341	          0.62214953	          0.36140223	          0.05000002	          0.10608885	          0.09416397	
          1.25486887	         -2.90418974	         -0.19607537	          9.47772777	          1.57804902	          0.85173122	         -0.00234365	        -17.27184883	         -2.88382029	          7.56319946	         31.99427894	         -1.25717049	         -3.56138649	        -18.50777561	        -20.21112878	        -14.05483569	          1.88439687	         18.58622721	          8.63437218	        -11.11771339	         -1.05827076	         34.35611000	          2.61019043	          1.36628351	         -1.95066201	         -3.28686327	          1.72795712	        -13.69358860	         16.68541884	        -17.28994961	        -13.60742308	         13.31897478	         44.68116654	         17.99402083	         86.51662706	         86.51662706	          0.29667467	          0.06025197	          0.06025208	          0.12618644	          0.08267739	          0.06024817	          0.09082666	          0.05000071	          0.05000108	          0.05000030	          0.05998685	          0.16555169	          0.19629023	          0.21732227	          0.06287103	          0.06816060	          0.10793778	          0.05754780	          0.05001014	          0.06023840	          0.06024948	          0.06024960	          0.20703853	          0.35227463	          0.06025202	          0.06025161	          0.05123570	          0.10622234	          0.08749314	          0.08749335	          0.08749341	          0.09872839	          0.13284376	          0.05000015	          0.09203807	          0.09419302	          0.10277449	          0.33332206	          0.39219154	          0.28869255	          0.83204170	          0.75911732	          0.45964975	          0.09978231	          0.06025207	          0.06025253	          0.22062170	          0.36198372	          0.52852105	          0.24159963	          0.09107004	          0.47807220	          0.07645333	          0.05000046	          0.08749982	          0.05000040	          0.05003001	          0.07260297	          0.10935346	          0.21688194	          0.16829169	          0.13732343	          0.05000065	          0.06756229	          0.07320992	          0.05000046	          0.05000067	          0.17135751	          0.06025229	          0.06024810	          0.32582308	          0.15987522	          0.36850084	          0.06025231	          0.25312207	          0.25801710	          0.23238487	          0.05229356	          0.05233593	          0.06025214	          0.05003741	          0.05000081	          0.05000331	          0.66059113	          0.18449769	          0.10902991	          0.39672735	          0.57562693	          0.37088223	          0.05325625	          0.08803736	          0.07814154	
          1.26717151	         -2.88571322	         -0.17981927	          9.49313744	          1.59791317	          0.84970985	         -0.00197538	        -16.80730121	         -3.01336759	          7.35065643	         31.19790366	         -0.96722277	         -3.28062492	        -21.07115027	        -21.20221481	        -15.86264233	          1.88917663	         18.70801754	          8.13628586	        -10.02083782	         -1.03752199	         30.43776185	          2.64051284	          1.57320300	         -1.65606109	         -3.33658647	          1.26162293	        -13.77487701	         16.88572802	        -18.56047132	        -13.62758704	         13.74184242	         45.70479714	         17.74462249	         86.51662706	         86.51662706	          0.24619428	          0.05000025	          0.05000009	          0.10472186	          0.06860969	          0.05000034	          0.13502610	          0.05000048	          0.05000100	          0.05000029	          0.05000181	          0.20197198	          0.20405796	          0.25646985	          0.05221829	          0.08928601	          0.08957183	          0.05000372	          0.05000047	          0.05000194	          0.05000154	          0.05000112	          0.17181006	          0.32693515	          0.05000014	          0.05000070	          0.05000019	          0.08814812	          0.07260634	          0.07260636	          0.07260639	          0.08192931	          0.11023981	          0.06426291	          0.07637743	          0.07816591	          0.08528719	          0.47048054	          0.33668836	          0.23972663	          0.69046660	          0.62994997	          0.38143823	          0.14502384	          0.05000002	          0.05000033	          0.35881469	          0.50273223	          0.58107118	          0.22518448	          0.45285428	          0.40800846	          0.06344452	          0.07265866	          0.07261140	          0.06025289	          0.05000132	          0.06024932	          0.09074654	          0.17997894	          0.16088278	          0.15511761	          0.05000107	          0.05606678	          0.06076054	          0.30586941	          0.22600861	          0.19621956	          0.05000022	          0.05000016	          0.27038299	          0.13267201	          0.30579915	          0.05000016	          0.40463628	          0.40059271	          0.35407515	          0.05000003	          0.05000008	          0.05000000	          0.15394345	          0.12874244	          0.05000173	          0.73644178	          0.15310458	          0.09047799	          0.32922297	          0.53028382	          0.34740341	          0.06996437	          0.07305741	          0.06484541	
